<mxfile host="app.diagrams.net" modified="2024-05-31T11:26:35.290Z" agent="Mozilla/5.0 (Windows NT 10.0; Win64; x64) AppleWebKit/537.36 (KHTML, like Gecko) Chrome/125.0.0.0 Safari/537.36" version="24.4.10" etag="3b2WsY6CNOoEOZ0fDf1j" type="device">
  <diagram id="SXc7AhoO0XIYvTgqJztn" name="Page-1">
    <mxGraphModel dx="1803" dy="671" grid="1" gridSize="10" guides="1" tooltips="1" connect="1" arrows="1" fold="1" page="1" pageScale="1" pageWidth="1169" pageHeight="826" math="0" shadow="0">
      <root>
        <mxCell id="0" />
        <mxCell id="1" parent="0" />
        <mxCell id="He6UoT7WSWH6cAqmwzOy-1" value="Clients subsystem" style="swimlane;whiteSpace=wrap;html=1;startSize=23;fillColor=#dae8fc;strokeColor=#6c8ebf;" vertex="1" parent="1">
          <mxGeometry x="390" y="60" width="620" height="720" as="geometry" />
        </mxCell>
        <mxCell id="He6UoT7WSWH6cAqmwzOy-80" style="edgeStyle=orthogonalEdgeStyle;rounded=0;orthogonalLoop=1;jettySize=auto;html=1;entryX=0;entryY=0.5;entryDx=0;entryDy=0;dashed=1;" edge="1" parent="He6UoT7WSWH6cAqmwzOy-1" source="He6UoT7WSWH6cAqmwzOy-11" target="He6UoT7WSWH6cAqmwzOy-79">
          <mxGeometry relative="1" as="geometry" />
        </mxCell>
        <mxCell id="He6UoT7WSWH6cAqmwzOy-82" value="&amp;lt;&amp;lt;includes&amp;gt;&amp;gt;" style="edgeLabel;html=1;align=center;verticalAlign=middle;resizable=0;points=[];" vertex="1" connectable="0" parent="He6UoT7WSWH6cAqmwzOy-80">
          <mxGeometry x="-0.1072" y="3" relative="1" as="geometry">
            <mxPoint x="7" y="-7" as="offset" />
          </mxGeometry>
        </mxCell>
        <mxCell id="He6UoT7WSWH6cAqmwzOy-11" value="View clients" style="ellipse;whiteSpace=wrap;html=1;" vertex="1" parent="He6UoT7WSWH6cAqmwzOy-1">
          <mxGeometry x="35" y="390" width="100" height="40" as="geometry" />
        </mxCell>
        <mxCell id="He6UoT7WSWH6cAqmwzOy-27" style="edgeStyle=orthogonalEdgeStyle;rounded=0;orthogonalLoop=1;jettySize=auto;html=1;entryX=0;entryY=0.5;entryDx=0;entryDy=0;dashed=1;" edge="1" parent="He6UoT7WSWH6cAqmwzOy-1" source="He6UoT7WSWH6cAqmwzOy-12" target="He6UoT7WSWH6cAqmwzOy-24">
          <mxGeometry relative="1" as="geometry" />
        </mxCell>
        <mxCell id="He6UoT7WSWH6cAqmwzOy-28" value="&amp;lt;&amp;lt;Includes&amp;gt;&amp;gt;" style="edgeLabel;html=1;align=center;verticalAlign=middle;resizable=0;points=[];" vertex="1" connectable="0" parent="He6UoT7WSWH6cAqmwzOy-27">
          <mxGeometry x="-0.196" y="-1" relative="1" as="geometry">
            <mxPoint as="offset" />
          </mxGeometry>
        </mxCell>
        <mxCell id="He6UoT7WSWH6cAqmwzOy-12" value="Edit clients" style="ellipse;whiteSpace=wrap;html=1;" vertex="1" parent="He6UoT7WSWH6cAqmwzOy-1">
          <mxGeometry x="35" y="140" width="80" height="40" as="geometry" />
        </mxCell>
        <mxCell id="He6UoT7WSWH6cAqmwzOy-64" style="edgeStyle=orthogonalEdgeStyle;rounded=0;orthogonalLoop=1;jettySize=auto;html=1;entryX=0;entryY=0.5;entryDx=0;entryDy=0;dashed=1;" edge="1" parent="He6UoT7WSWH6cAqmwzOy-1" source="He6UoT7WSWH6cAqmwzOy-13" target="He6UoT7WSWH6cAqmwzOy-62">
          <mxGeometry relative="1" as="geometry" />
        </mxCell>
        <mxCell id="He6UoT7WSWH6cAqmwzOy-70" value="&amp;lt;&amp;lt;includes&amp;gt;&amp;gt;" style="edgeLabel;html=1;align=center;verticalAlign=middle;resizable=0;points=[];" vertex="1" connectable="0" parent="He6UoT7WSWH6cAqmwzOy-64">
          <mxGeometry x="-0.0083" relative="1" as="geometry">
            <mxPoint y="-10" as="offset" />
          </mxGeometry>
        </mxCell>
        <mxCell id="He6UoT7WSWH6cAqmwzOy-13" value="Delete clients" style="ellipse;whiteSpace=wrap;html=1;" vertex="1" parent="He6UoT7WSWH6cAqmwzOy-1">
          <mxGeometry x="45" y="500" width="110" height="40" as="geometry" />
        </mxCell>
        <mxCell id="He6UoT7WSWH6cAqmwzOy-16" value="Add client&amp;nbsp;" style="ellipse;whiteSpace=wrap;html=1;" vertex="1" parent="He6UoT7WSWH6cAqmwzOy-1">
          <mxGeometry x="45" y="615" width="110" height="40" as="geometry" />
        </mxCell>
        <mxCell id="He6UoT7WSWH6cAqmwzOy-46" style="edgeStyle=orthogonalEdgeStyle;rounded=0;orthogonalLoop=1;jettySize=auto;html=1;entryX=0;entryY=0.5;entryDx=0;entryDy=0;dashed=1;" edge="1" parent="He6UoT7WSWH6cAqmwzOy-1" source="He6UoT7WSWH6cAqmwzOy-24" target="He6UoT7WSWH6cAqmwzOy-44">
          <mxGeometry relative="1" as="geometry" />
        </mxCell>
        <mxCell id="He6UoT7WSWH6cAqmwzOy-50" value="&amp;lt;&amp;lt;includes&amp;gt;&amp;gt;" style="edgeLabel;html=1;align=center;verticalAlign=middle;resizable=0;points=[];" vertex="1" connectable="0" parent="He6UoT7WSWH6cAqmwzOy-46">
          <mxGeometry x="-0.2381" y="1" relative="1" as="geometry">
            <mxPoint x="3" y="-19" as="offset" />
          </mxGeometry>
        </mxCell>
        <mxCell id="He6UoT7WSWH6cAqmwzOy-24" value="Changing any detail of a client" style="ellipse;whiteSpace=wrap;html=1;" vertex="1" parent="He6UoT7WSWH6cAqmwzOy-1">
          <mxGeometry x="110" y="70" width="100" height="58" as="geometry" />
        </mxCell>
        <mxCell id="He6UoT7WSWH6cAqmwzOy-38" style="edgeStyle=orthogonalEdgeStyle;rounded=0;orthogonalLoop=1;jettySize=auto;html=1;dashed=1;" edge="1" parent="He6UoT7WSWH6cAqmwzOy-1" source="He6UoT7WSWH6cAqmwzOy-30" target="He6UoT7WSWH6cAqmwzOy-12">
          <mxGeometry relative="1" as="geometry">
            <Array as="points">
              <mxPoint x="375" y="300" />
              <mxPoint x="75" y="300" />
            </Array>
          </mxGeometry>
        </mxCell>
        <mxCell id="He6UoT7WSWH6cAqmwzOy-104" value="&amp;lt;&amp;lt;extends&amp;gt;&amp;gt;" style="edgeLabel;html=1;align=center;verticalAlign=middle;resizable=0;points=[];" vertex="1" connectable="0" parent="He6UoT7WSWH6cAqmwzOy-38">
          <mxGeometry x="-0.1869" y="-1" relative="1" as="geometry">
            <mxPoint as="offset" />
          </mxGeometry>
        </mxCell>
        <mxCell id="He6UoT7WSWH6cAqmwzOy-30" value="All clients&amp;nbsp;" style="ellipse;whiteSpace=wrap;html=1;" vertex="1" parent="He6UoT7WSWH6cAqmwzOy-1">
          <mxGeometry x="332.5" y="310" width="85" height="30" as="geometry" />
        </mxCell>
        <mxCell id="He6UoT7WSWH6cAqmwzOy-39" style="edgeStyle=orthogonalEdgeStyle;rounded=0;orthogonalLoop=1;jettySize=auto;html=1;dashed=1;entryX=0.69;entryY=0.915;entryDx=0;entryDy=0;entryPerimeter=0;" edge="1" parent="He6UoT7WSWH6cAqmwzOy-1" source="He6UoT7WSWH6cAqmwzOy-31" target="He6UoT7WSWH6cAqmwzOy-12">
          <mxGeometry relative="1" as="geometry">
            <mxPoint x="80" y="180" as="targetPoint" />
            <Array as="points">
              <mxPoint x="375" y="210" />
              <mxPoint x="90" y="210" />
            </Array>
          </mxGeometry>
        </mxCell>
        <mxCell id="He6UoT7WSWH6cAqmwzOy-40" value="&amp;lt;&amp;lt;extends&amp;gt;&amp;gt;" style="edgeLabel;html=1;align=center;verticalAlign=middle;resizable=0;points=[];" vertex="1" connectable="0" parent="He6UoT7WSWH6cAqmwzOy-39">
          <mxGeometry y="1" relative="1" as="geometry">
            <mxPoint as="offset" />
          </mxGeometry>
        </mxCell>
        <mxCell id="He6UoT7WSWH6cAqmwzOy-31" value="subset of clients&amp;nbsp;" style="ellipse;whiteSpace=wrap;html=1;" vertex="1" parent="He6UoT7WSWH6cAqmwzOy-1">
          <mxGeometry x="315" y="220" width="120" height="40" as="geometry" />
        </mxCell>
        <mxCell id="He6UoT7WSWH6cAqmwzOy-44" value="Save to database" style="ellipse;whiteSpace=wrap;html=1;" vertex="1" parent="He6UoT7WSWH6cAqmwzOy-1">
          <mxGeometry x="405" y="79" width="80" height="40" as="geometry" />
        </mxCell>
        <mxCell id="He6UoT7WSWH6cAqmwzOy-52" value="All clients associated with jobs under me" style="ellipse;whiteSpace=wrap;html=1;" vertex="1" parent="He6UoT7WSWH6cAqmwzOy-1">
          <mxGeometry x="510" y="180" width="110" height="50" as="geometry" />
        </mxCell>
        <mxCell id="He6UoT7WSWH6cAqmwzOy-53" value="All clients asociated with my jobs" style="ellipse;whiteSpace=wrap;html=1;" vertex="1" parent="He6UoT7WSWH6cAqmwzOy-1">
          <mxGeometry x="515" y="243" width="100" height="50" as="geometry" />
        </mxCell>
        <mxCell id="He6UoT7WSWH6cAqmwzOy-58" style="edgeStyle=orthogonalEdgeStyle;rounded=0;orthogonalLoop=1;jettySize=auto;html=1;entryX=0.983;entryY=0.747;entryDx=0;entryDy=0;entryPerimeter=0;dashed=1;" edge="1" parent="He6UoT7WSWH6cAqmwzOy-1" source="He6UoT7WSWH6cAqmwzOy-53" target="He6UoT7WSWH6cAqmwzOy-31">
          <mxGeometry relative="1" as="geometry">
            <Array as="points">
              <mxPoint x="450" y="268" />
              <mxPoint x="450" y="250" />
            </Array>
          </mxGeometry>
        </mxCell>
        <mxCell id="He6UoT7WSWH6cAqmwzOy-61" value="&amp;lt;&amp;lt;extend&amp;gt;&amp;gt;" style="edgeLabel;html=1;align=center;verticalAlign=middle;resizable=0;points=[];" vertex="1" connectable="0" parent="He6UoT7WSWH6cAqmwzOy-58">
          <mxGeometry x="0.0085" y="-3" relative="1" as="geometry">
            <mxPoint x="15" y="15" as="offset" />
          </mxGeometry>
        </mxCell>
        <mxCell id="He6UoT7WSWH6cAqmwzOy-59" style="edgeStyle=orthogonalEdgeStyle;rounded=0;orthogonalLoop=1;jettySize=auto;html=1;entryX=0.996;entryY=0.362;entryDx=0;entryDy=0;entryPerimeter=0;dashed=1;" edge="1" parent="He6UoT7WSWH6cAqmwzOy-1" source="He6UoT7WSWH6cAqmwzOy-52" target="He6UoT7WSWH6cAqmwzOy-31">
          <mxGeometry relative="1" as="geometry">
            <Array as="points">
              <mxPoint x="450" y="205" />
              <mxPoint x="450" y="234" />
            </Array>
          </mxGeometry>
        </mxCell>
        <mxCell id="He6UoT7WSWH6cAqmwzOy-60" value="&amp;lt;&amp;lt;extends&amp;gt;&amp;gt;" style="edgeLabel;html=1;align=center;verticalAlign=middle;resizable=0;points=[];" vertex="1" connectable="0" parent="He6UoT7WSWH6cAqmwzOy-59">
          <mxGeometry x="-0.2554" y="-2" relative="1" as="geometry">
            <mxPoint x="9" y="-13" as="offset" />
          </mxGeometry>
        </mxCell>
        <mxCell id="He6UoT7WSWH6cAqmwzOy-62" value="Flag the user for delete in the database" style="ellipse;whiteSpace=wrap;html=1;" vertex="1" parent="He6UoT7WSWH6cAqmwzOy-1">
          <mxGeometry x="365" y="490" width="120" height="60" as="geometry" />
        </mxCell>
        <mxCell id="He6UoT7WSWH6cAqmwzOy-68" style="edgeStyle=orthogonalEdgeStyle;rounded=0;orthogonalLoop=1;jettySize=auto;html=1;entryX=0;entryY=0.5;entryDx=0;entryDy=0;dashed=1;" edge="1" parent="He6UoT7WSWH6cAqmwzOy-1" source="He6UoT7WSWH6cAqmwzOy-66" target="He6UoT7WSWH6cAqmwzOy-67">
          <mxGeometry relative="1" as="geometry" />
        </mxCell>
        <mxCell id="He6UoT7WSWH6cAqmwzOy-69" value="&amp;lt;&amp;lt;includes&amp;gt;&amp;gt;" style="edgeLabel;html=1;align=center;verticalAlign=middle;resizable=0;points=[];" vertex="1" connectable="0" parent="He6UoT7WSWH6cAqmwzOy-68">
          <mxGeometry x="-0.0727" y="4" relative="1" as="geometry">
            <mxPoint y="-11" as="offset" />
          </mxGeometry>
        </mxCell>
        <mxCell id="He6UoT7WSWH6cAqmwzOy-66" value="Enter all the clients details" style="ellipse;whiteSpace=wrap;html=1;" vertex="1" parent="He6UoT7WSWH6cAqmwzOy-1">
          <mxGeometry x="250" y="610" width="130" height="50" as="geometry" />
        </mxCell>
        <mxCell id="He6UoT7WSWH6cAqmwzOy-67" value="Save to databse" style="ellipse;whiteSpace=wrap;html=1;" vertex="1" parent="He6UoT7WSWH6cAqmwzOy-1">
          <mxGeometry x="560" y="612.5" width="60" height="45" as="geometry" />
        </mxCell>
        <mxCell id="He6UoT7WSWH6cAqmwzOy-74" style="edgeStyle=orthogonalEdgeStyle;rounded=0;orthogonalLoop=1;jettySize=auto;html=1;dashed=1;" edge="1" parent="He6UoT7WSWH6cAqmwzOy-1" source="He6UoT7WSWH6cAqmwzOy-31" target="He6UoT7WSWH6cAqmwzOy-11">
          <mxGeometry relative="1" as="geometry">
            <mxPoint x="130" y="360" as="targetPoint" />
            <Array as="points">
              <mxPoint x="375" y="270" />
              <mxPoint x="90" y="270" />
            </Array>
          </mxGeometry>
        </mxCell>
        <mxCell id="He6UoT7WSWH6cAqmwzOy-77" value="&amp;lt;&amp;lt;extends&amp;gt;&amp;gt;" style="edgeLabel;html=1;align=center;verticalAlign=middle;resizable=0;points=[];" vertex="1" connectable="0" parent="He6UoT7WSWH6cAqmwzOy-74">
          <mxGeometry x="0.1075" y="2" relative="1" as="geometry">
            <mxPoint x="68" y="-2" as="offset" />
          </mxGeometry>
        </mxCell>
        <mxCell id="He6UoT7WSWH6cAqmwzOy-75" style="edgeStyle=orthogonalEdgeStyle;rounded=0;orthogonalLoop=1;jettySize=auto;html=1;dashed=1;entryX=0.714;entryY=0.075;entryDx=0;entryDy=0;entryPerimeter=0;" edge="1" parent="He6UoT7WSWH6cAqmwzOy-1" source="He6UoT7WSWH6cAqmwzOy-30" target="He6UoT7WSWH6cAqmwzOy-11">
          <mxGeometry relative="1" as="geometry">
            <mxPoint x="106" y="390" as="targetPoint" />
            <Array as="points">
              <mxPoint x="375" y="360" />
              <mxPoint x="106" y="360" />
            </Array>
          </mxGeometry>
        </mxCell>
        <mxCell id="He6UoT7WSWH6cAqmwzOy-76" value="&amp;lt;&amp;lt;extends&amp;gt;&amp;gt;" style="edgeLabel;html=1;align=center;verticalAlign=middle;resizable=0;points=[];" vertex="1" connectable="0" parent="He6UoT7WSWH6cAqmwzOy-75">
          <mxGeometry x="-0.4998" y="-2" relative="1" as="geometry">
            <mxPoint y="61" as="offset" />
          </mxGeometry>
        </mxCell>
        <mxCell id="He6UoT7WSWH6cAqmwzOy-105" value="&amp;lt;&amp;lt;extends&amp;gt;&amp;gt;" style="edgeLabel;html=1;align=center;verticalAlign=middle;resizable=0;points=[];" vertex="1" connectable="0" parent="He6UoT7WSWH6cAqmwzOy-75">
          <mxGeometry x="-0.2048" y="2" relative="1" as="geometry">
            <mxPoint x="-27" y="-2" as="offset" />
          </mxGeometry>
        </mxCell>
        <mxCell id="He6UoT7WSWH6cAqmwzOy-78" value="Display information" style="ellipse;whiteSpace=wrap;html=1;" vertex="1" parent="He6UoT7WSWH6cAqmwzOy-1">
          <mxGeometry x="447.5" y="387.5" width="112.5" height="45" as="geometry" />
        </mxCell>
        <mxCell id="He6UoT7WSWH6cAqmwzOy-81" style="edgeStyle=orthogonalEdgeStyle;rounded=0;orthogonalLoop=1;jettySize=auto;html=1;entryX=0;entryY=0.5;entryDx=0;entryDy=0;dashed=1;" edge="1" parent="He6UoT7WSWH6cAqmwzOy-1" source="He6UoT7WSWH6cAqmwzOy-79" target="He6UoT7WSWH6cAqmwzOy-78">
          <mxGeometry relative="1" as="geometry" />
        </mxCell>
        <mxCell id="He6UoT7WSWH6cAqmwzOy-83" value="&amp;lt;&amp;lt;includes&amp;gt;&amp;gt;" style="edgeLabel;html=1;align=center;verticalAlign=middle;resizable=0;points=[];" vertex="1" connectable="0" parent="He6UoT7WSWH6cAqmwzOy-81">
          <mxGeometry x="-0.5776" y="4" relative="1" as="geometry">
            <mxPoint x="25" y="-6" as="offset" />
          </mxGeometry>
        </mxCell>
        <mxCell id="He6UoT7WSWH6cAqmwzOy-79" value="Retrieve information" style="ellipse;whiteSpace=wrap;html=1;" vertex="1" parent="He6UoT7WSWH6cAqmwzOy-1">
          <mxGeometry x="250" y="390" width="80" height="40" as="geometry" />
        </mxCell>
        <mxCell id="He6UoT7WSWH6cAqmwzOy-84" style="edgeStyle=orthogonalEdgeStyle;rounded=0;orthogonalLoop=1;jettySize=auto;html=1;entryX=0;entryY=0.5;entryDx=0;entryDy=0;dashed=1;" edge="1" parent="He6UoT7WSWH6cAqmwzOy-1" source="He6UoT7WSWH6cAqmwzOy-16" target="He6UoT7WSWH6cAqmwzOy-66">
          <mxGeometry relative="1" as="geometry" />
        </mxCell>
        <mxCell id="He6UoT7WSWH6cAqmwzOy-85" value="&amp;lt;&amp;lt;includes&amp;gt;&amp;gt;" style="edgeLabel;html=1;align=center;verticalAlign=middle;resizable=0;points=[];" vertex="1" connectable="0" parent="He6UoT7WSWH6cAqmwzOy-84">
          <mxGeometry x="-0.1745" relative="1" as="geometry">
            <mxPoint y="-20" as="offset" />
          </mxGeometry>
        </mxCell>
        <mxCell id="He6UoT7WSWH6cAqmwzOy-9" style="edgeStyle=orthogonalEdgeStyle;rounded=0;orthogonalLoop=1;jettySize=auto;html=1;" edge="1" parent="1" source="He6UoT7WSWH6cAqmwzOy-2" target="He6UoT7WSWH6cAqmwzOy-6">
          <mxGeometry relative="1" as="geometry">
            <Array as="points">
              <mxPoint x="190" y="360" />
              <mxPoint x="190" y="450" />
            </Array>
          </mxGeometry>
        </mxCell>
        <mxCell id="He6UoT7WSWH6cAqmwzOy-2" value="User" style="shape=umlActor;verticalLabelPosition=bottom;verticalAlign=top;html=1;outlineConnect=0;" vertex="1" parent="1">
          <mxGeometry x="130" y="330" width="30" height="60" as="geometry" />
        </mxCell>
        <mxCell id="He6UoT7WSWH6cAqmwzOy-94" style="edgeStyle=orthogonalEdgeStyle;rounded=0;orthogonalLoop=1;jettySize=auto;html=1;entryX=0;entryY=0;entryDx=0;entryDy=0;endArrow=none;endFill=0;fillColor=#f8cecc;strokeColor=#b85450;" edge="1" parent="1" source="He6UoT7WSWH6cAqmwzOy-5" target="He6UoT7WSWH6cAqmwzOy-11">
          <mxGeometry relative="1" as="geometry">
            <Array as="points">
              <mxPoint x="330" y="300" />
              <mxPoint x="330" y="370" />
              <mxPoint x="440" y="370" />
            </Array>
          </mxGeometry>
        </mxCell>
        <mxCell id="He6UoT7WSWH6cAqmwzOy-95" style="edgeStyle=orthogonalEdgeStyle;rounded=0;orthogonalLoop=1;jettySize=auto;html=1;entryX=0;entryY=0.5;entryDx=0;entryDy=0;endArrow=none;endFill=0;fillColor=#f8cecc;strokeColor=#b85450;" edge="1" parent="1" source="He6UoT7WSWH6cAqmwzOy-5" target="He6UoT7WSWH6cAqmwzOy-31">
          <mxGeometry relative="1" as="geometry">
            <Array as="points">
              <mxPoint x="480" y="300" />
              <mxPoint x="480" y="300" />
            </Array>
          </mxGeometry>
        </mxCell>
        <mxCell id="He6UoT7WSWH6cAqmwzOy-5" value="General user" style="shape=umlActor;verticalLabelPosition=bottom;verticalAlign=top;html=1;outlineConnect=0;" vertex="1" parent="1">
          <mxGeometry x="250" y="250" width="30" height="60" as="geometry" />
        </mxCell>
        <mxCell id="He6UoT7WSWH6cAqmwzOy-90" style="edgeStyle=orthogonalEdgeStyle;rounded=0;orthogonalLoop=1;jettySize=auto;html=1;endArrow=none;endFill=0;fillColor=#e1d5e7;strokeColor=#9673a6;" edge="1" parent="1" source="He6UoT7WSWH6cAqmwzOy-6" target="He6UoT7WSWH6cAqmwzOy-11">
          <mxGeometry relative="1" as="geometry">
            <Array as="points">
              <mxPoint x="350" y="440" />
              <mxPoint x="350" y="470" />
            </Array>
          </mxGeometry>
        </mxCell>
        <mxCell id="He6UoT7WSWH6cAqmwzOy-96" style="edgeStyle=orthogonalEdgeStyle;rounded=0;orthogonalLoop=1;jettySize=auto;html=1;entryX=0;entryY=0.5;entryDx=0;entryDy=0;endArrow=none;endFill=0;fillColor=#e1d5e7;strokeColor=#9673a6;" edge="1" parent="1" source="He6UoT7WSWH6cAqmwzOy-6" target="He6UoT7WSWH6cAqmwzOy-30">
          <mxGeometry relative="1" as="geometry">
            <Array as="points">
              <mxPoint x="350" y="440" />
              <mxPoint x="350" y="385" />
            </Array>
          </mxGeometry>
        </mxCell>
        <mxCell id="He6UoT7WSWH6cAqmwzOy-6" value="Managerial" style="shape=umlActor;verticalLabelPosition=bottom;verticalAlign=top;html=1;outlineConnect=0;" vertex="1" parent="1">
          <mxGeometry x="250" y="410" width="30" height="60" as="geometry" />
        </mxCell>
        <mxCell id="He6UoT7WSWH6cAqmwzOy-10" style="edgeStyle=orthogonalEdgeStyle;rounded=0;orthogonalLoop=1;jettySize=auto;html=1;entryX=0.5;entryY=0.5;entryDx=0;entryDy=0;entryPerimeter=0;" edge="1" parent="1" source="He6UoT7WSWH6cAqmwzOy-2" target="He6UoT7WSWH6cAqmwzOy-5">
          <mxGeometry relative="1" as="geometry">
            <Array as="points">
              <mxPoint x="190" y="360" />
              <mxPoint x="190" y="280" />
            </Array>
          </mxGeometry>
        </mxCell>
        <mxCell id="He6UoT7WSWH6cAqmwzOy-45" value="API" style="shape=umlActor;verticalLabelPosition=bottom;verticalAlign=top;html=1;outlineConnect=0;" vertex="1" parent="1">
          <mxGeometry x="1060" y="400" width="30" height="60" as="geometry" />
        </mxCell>
        <mxCell id="He6UoT7WSWH6cAqmwzOy-91" style="edgeStyle=orthogonalEdgeStyle;rounded=0;orthogonalLoop=1;jettySize=auto;html=1;endArrow=none;endFill=0;entryX=0;entryY=0.5;entryDx=0;entryDy=0;fillColor=#e1d5e7;strokeColor=#9673a6;" edge="1" parent="1" source="He6UoT7WSWH6cAqmwzOy-6" target="He6UoT7WSWH6cAqmwzOy-13">
          <mxGeometry relative="1" as="geometry">
            <mxPoint x="430" y="580" as="targetPoint" />
            <Array as="points">
              <mxPoint x="265" y="580" />
            </Array>
          </mxGeometry>
        </mxCell>
        <mxCell id="He6UoT7WSWH6cAqmwzOy-92" style="edgeStyle=orthogonalEdgeStyle;rounded=0;orthogonalLoop=1;jettySize=auto;html=1;entryX=0.045;entryY=0.417;entryDx=0;entryDy=0;entryPerimeter=0;endArrow=none;endFill=0;fillColor=#e1d5e7;strokeColor=#9673a6;" edge="1" parent="1" source="He6UoT7WSWH6cAqmwzOy-6" target="He6UoT7WSWH6cAqmwzOy-16">
          <mxGeometry relative="1" as="geometry">
            <Array as="points">
              <mxPoint x="265" y="692" />
            </Array>
          </mxGeometry>
        </mxCell>
        <mxCell id="He6UoT7WSWH6cAqmwzOy-93" style="edgeStyle=orthogonalEdgeStyle;rounded=0;orthogonalLoop=1;jettySize=auto;html=1;entryX=0.002;entryY=0.585;entryDx=0;entryDy=0;entryPerimeter=0;endArrow=none;endFill=0;fillColor=#f8cecc;strokeColor=#b85450;" edge="1" parent="1" source="He6UoT7WSWH6cAqmwzOy-5" target="He6UoT7WSWH6cAqmwzOy-12">
          <mxGeometry relative="1" as="geometry">
            <Array as="points">
              <mxPoint x="330" y="300" />
              <mxPoint x="330" y="223" />
            </Array>
          </mxGeometry>
        </mxCell>
        <mxCell id="He6UoT7WSWH6cAqmwzOy-97" style="edgeStyle=orthogonalEdgeStyle;rounded=0;orthogonalLoop=1;jettySize=auto;html=1;entryX=0.325;entryY=0.992;entryDx=0;entryDy=0;entryPerimeter=0;endArrow=none;endFill=0;fillColor=#e1d5e7;strokeColor=#9673a6;" edge="1" parent="1" source="He6UoT7WSWH6cAqmwzOy-6" target="He6UoT7WSWH6cAqmwzOy-12">
          <mxGeometry relative="1" as="geometry">
            <Array as="points">
              <mxPoint x="350" y="440" />
              <mxPoint x="350" y="240" />
            </Array>
          </mxGeometry>
        </mxCell>
        <mxCell id="He6UoT7WSWH6cAqmwzOy-98" style="edgeStyle=orthogonalEdgeStyle;rounded=0;orthogonalLoop=1;jettySize=auto;html=1;entryX=0.5;entryY=0;entryDx=0;entryDy=0;entryPerimeter=0;endArrow=none;endFill=0;fillColor=#d5e8d4;strokeColor=#82b366;" edge="1" parent="1" source="He6UoT7WSWH6cAqmwzOy-44" target="He6UoT7WSWH6cAqmwzOy-45">
          <mxGeometry relative="1" as="geometry" />
        </mxCell>
        <mxCell id="He6UoT7WSWH6cAqmwzOy-99" style="edgeStyle=orthogonalEdgeStyle;rounded=0;orthogonalLoop=1;jettySize=auto;html=1;endArrow=none;endFill=0;fillColor=#d5e8d4;strokeColor=#82b366;" edge="1" parent="1" source="He6UoT7WSWH6cAqmwzOy-79" target="He6UoT7WSWH6cAqmwzOy-45">
          <mxGeometry relative="1" as="geometry">
            <Array as="points">
              <mxPoint x="680" y="520" />
              <mxPoint x="1020" y="520" />
              <mxPoint x="1020" y="430" />
            </Array>
          </mxGeometry>
        </mxCell>
        <mxCell id="He6UoT7WSWH6cAqmwzOy-100" style="edgeStyle=orthogonalEdgeStyle;rounded=0;orthogonalLoop=1;jettySize=auto;html=1;endArrow=none;endFill=0;fillColor=#d5e8d4;strokeColor=#82b366;" edge="1" parent="1" source="He6UoT7WSWH6cAqmwzOy-62" target="He6UoT7WSWH6cAqmwzOy-45">
          <mxGeometry relative="1" as="geometry">
            <Array as="points">
              <mxPoint x="1020" y="580" />
              <mxPoint x="1020" y="430" />
            </Array>
          </mxGeometry>
        </mxCell>
        <mxCell id="He6UoT7WSWH6cAqmwzOy-101" style="edgeStyle=orthogonalEdgeStyle;rounded=0;orthogonalLoop=1;jettySize=auto;html=1;endArrow=none;endFill=0;fillColor=#d5e8d4;strokeColor=#82b366;" edge="1" parent="1" source="He6UoT7WSWH6cAqmwzOy-67" target="He6UoT7WSWH6cAqmwzOy-45">
          <mxGeometry relative="1" as="geometry">
            <mxPoint x="1130" y="460" as="targetPoint" />
            <Array as="points">
              <mxPoint x="1020" y="695" />
              <mxPoint x="1020" y="430" />
            </Array>
          </mxGeometry>
        </mxCell>
      </root>
    </mxGraphModel>
  </diagram>
</mxfile>
